<svg width="192" height="192" viewBox="0 0 192 192" fill="none" xmlns="http://www.w3.org/2000/svg">
<path d="M96 81C112.569 81 126 67.5685 126 51C126 34.4315 112.569 21 96 21C79.4315 21 66 34.4315 66 51C66 67.5685 79.4315 81 96 81Z" fill="black" stroke="black" stroke-width="12" stroke-linecap="round" stroke-linejoin="round"/>
<path d="M141 159C157.569 159 171 145.569 171 129C171 112.431 157.569 99 141 99C124.431 99 111 112.431 111 129C111 145.569 124.431 159 141 159Z" fill="black" stroke="black" stroke-width="12" stroke-linecap="round" stroke-linejoin="round"/>
<path d="M51 159C67.5685 159 81 145.569 81 129C81 112.431 67.5685 99 51 99C34.4315 99 21 112.431 21 129C21 145.569 34.4315 159 51 159Z" fill="black" stroke="black" stroke-width="12" stroke-linecap="round" stroke-linejoin="round"/>
</svg>
