<svg width="198" height="191" viewBox="0 0 198 191" fill="none" xmlns="http://www.w3.org/2000/svg">
<path fill-rule="evenodd" clip-rule="evenodd" d="M78.966 70.4168C78.3097 72.4369 76.4272 73.8046 74.3031 73.8046H24.5614C19.8119 73.8046 17.8371 79.8823 21.6796 82.674L61.9215 111.911C63.6399 113.16 64.3589 115.373 63.7025 117.393L48.3315 164.7C46.8638 169.217 52.0338 172.973 55.8763 170.182L96.1182 140.944C97.8366 139.696 100.163 139.696 101.882 140.944L142.124 170.182C145.966 172.973 151.136 169.217 149.668 164.7L134.297 117.393C133.641 115.373 134.36 113.16 136.079 111.911L176.32 82.674C180.163 79.8823 178.188 73.8046 173.439 73.8046H123.697C121.573 73.8046 119.69 72.4369 119.034 70.4168L103.663 23.1097C102.195 18.5926 95.8048 18.5926 94.3371 23.1097L78.966 70.4168ZM134.383 54.1931L122.315 17.0494C114.976 -5.53602 83.0238 -5.53597 75.6854 17.0494L63.6167 54.1931H24.5614C0.81369 54.1931 -9.06008 84.5815 10.1522 98.5401L41.7485 121.496L29.6798 158.64C22.3413 181.225 48.1914 200.006 67.4037 186.048L99 163.092L130.596 186.048C149.809 200.006 175.659 181.225 168.32 158.64L156.251 121.496L187.848 98.5401C207.06 84.5815 197.186 54.1931 173.439 54.1931H134.383Z" fill="black"/>
</svg>
