<svg width="200" height="200" viewBox="0 0 200 200" fill="none" xmlns="http://www.w3.org/2000/svg">
<path fill-rule="evenodd" clip-rule="evenodd" d="M79.966 75.3064C79.3097 77.3265 77.4272 78.6943 75.3031 78.6943H25.5614C20.8119 78.6943 18.8371 84.7719 22.6796 87.5637L62.9215 116.801C64.6399 118.05 65.3589 120.263 64.7025 122.283L49.3315 169.59C47.8638 174.107 53.0338 177.863 56.8763 175.071L97.1182 145.834C98.8365 144.585 101.163 144.585 102.882 145.834L143.124 175.071C146.966 177.863 152.136 174.107 150.669 169.59L135.297 122.283C134.641 120.263 135.36 118.05 137.079 116.801L177.32 87.5637C181.163 84.7719 179.188 78.6943 174.439 78.6943H124.697C122.573 78.6943 120.69 77.3265 120.034 75.3064L104.663 27.9993C103.195 23.4823 96.8048 23.4823 95.3371 27.9993L79.966 75.3064ZM135.383 59.0827L123.315 21.939C115.976 -0.646367 84.0238 -0.646324 76.6854 21.939L64.6167 59.0827H25.5614C1.81369 59.0827 -8.06008 89.4712 11.1522 103.43L42.7485 126.386L30.6798 163.529C23.3413 186.115 49.1914 204.896 68.4037 190.937L100 167.981L131.596 190.937C150.809 204.896 176.659 186.115 169.32 163.529L157.251 126.386L188.848 103.43C208.06 89.4711 198.186 59.0827 174.439 59.0827H135.383Z" fill="black"/>
</svg>
