<svg width="192" height="192" viewBox="0 0 192 192" fill="none" xmlns="http://www.w3.org/2000/svg">
<g clip-path="url(#clip0_14_69)">
<path d="M36 169V43" stroke="black" stroke-width="30" stroke-linecap="round" stroke-linejoin="round"/>
<path d="M30 125.682C76.6062 90.9747 111.899 157.366 157.848 128.53C160.525 126.85 162 123.82 162 120.66V56.2343C162 48.0095 152.236 43.0784 144.277 45.155C104.895 55.4314 72.9003 4.29736 31 35.5" fill="black"/>
<path d="M30 125.682C76.6062 90.9747 111.899 157.366 157.848 128.53C160.525 126.85 162 123.82 162 120.66V56.2343C162 48.0095 152.236 43.0784 144.277 45.155C104.895 55.4314 72.9003 4.29736 31 35.5" stroke="black" stroke-width="12" stroke-linecap="round" stroke-linejoin="round"/>
</g>
<defs>
<clipPath id="clip0_14_69">
<rect width="192" height="192" fill="white"/>
</clipPath>
</defs>
</svg>
