<svg width="200" height="200" viewBox="0 0 200 200" fill="none" xmlns="http://www.w3.org/2000/svg">
<path fill-rule="evenodd" clip-rule="evenodd" d="M175.293 128.571L125.564 42.4382C114.202 22.7592 85.7979 22.7592 74.4362 42.4382L24.7071 128.571C13.3454 148.25 27.5475 172.849 50.2709 172.849H149.729C172.452 172.849 186.655 148.25 175.293 128.571ZM142.606 32.5987C123.67 -0.199574 76.3299 -0.199566 57.3937 32.5987L7.66461 118.732C-11.2715 151.53 12.3986 192.528 50.2709 192.528H149.729C187.601 192.528 211.271 151.53 192.335 118.732L142.606 32.5987Z" fill="black"/>
<path d="M100.063 121.551C104.603 121.551 108.546 118.393 109.217 113.903C110.699 103.993 111.674 90.992 111.674 77.9909V68.8335C111.674 62.4774 106.521 57.3247 100.165 57.3247C93.8089 57.3247 88.6562 62.4773 88.6562 68.8335V77.9909C88.6562 90.6345 89.4843 103.579 90.8468 113.713C91.4618 118.288 95.4478 121.551 100.063 121.551ZM100.041 150.508C106.105 150.508 111.426 145.435 111.426 139.371C111.426 133.183 106.105 128.11 100.041 128.11C93.73 128.11 88.6562 133.183 88.6562 139.371C88.6562 145.435 93.73 150.508 100.041 150.508Z" fill="black"/>
</svg>
