<svg width="198" height="185" viewBox="0 0 198 185" fill="none" xmlns="http://www.w3.org/2000/svg">
<path fill-rule="evenodd" clip-rule="evenodd" d="M174.293 120.776L124.564 34.6423C113.202 14.9633 84.7979 14.9633 73.4362 34.6423L23.7071 120.776C12.3454 140.455 26.5475 165.053 49.2709 165.053H148.729C171.452 165.053 185.655 140.455 174.293 120.776ZM141.606 24.8028C122.67 -7.99547 75.3299 -7.99546 56.3937 24.8028L6.66461 110.936C-12.2715 143.734 11.3986 184.732 49.2709 184.732H148.729C186.601 184.732 210.272 143.734 191.335 110.936L141.606 24.8028Z" fill="black"/>
<path d="M99.0634 113.755C103.603 113.755 107.546 110.597 108.217 106.107C109.699 96.1971 110.674 83.1961 110.674 70.195V61.0376C110.674 54.6815 105.521 49.5288 99.165 49.5288V49.5288C92.8089 49.5288 87.6562 54.6815 87.6562 61.0376V70.195C87.6562 82.8386 88.4843 95.7833 89.8468 105.918C90.4618 110.492 94.4478 113.755 99.0634 113.755V113.755ZM99.0413 142.712C105.105 142.712 110.426 137.639 110.426 131.575C110.426 125.387 105.105 120.314 99.0413 120.314C92.73 120.314 87.6562 125.387 87.6562 131.575C87.6562 137.639 92.73 142.712 99.0413 142.712Z" fill="black"/>
</svg>
