<svg width="200" height="200" viewBox="0 0 200 200" fill="none" xmlns="http://www.w3.org/2000/svg">
<path d="M118.739 76.6928C110.439 75.7312 104.475 68.1487 105.43 59.7528C106.377 51.357 113.878 45.3316 122.174 46.2908C130.474 47.2523 136.432 54.8349 135.483 63.2308C134.538 71.6266 127.039 77.652 118.739 76.6928Z" fill="black"/>
<path d="M31.8331 184.509C43.5777 164.342 80.1056 99.1844 86.1693 88.5496C74.3314 84.7297 63.5148 88.2172 55.009 100.268C48.0914 110.07 31.912 100.672 38.9134 90.7503C55.3749 67.4285 79.9262 61.6375 104.504 76.396C105.532 77.0107 110.137 79.5845 111.175 80.2088C126.462 89.382 140.656 87.6455 151.262 72.6191C158.187 62.8143 174.366 72.2172 167.363 82.1367C153.826 101.306 134.829 108.621 114.842 102.423C108.575 113.311 102.621 124.398 96.9045 135.59C105.355 139.956 113.182 145.405 120.456 151.81C124.752 155.597 124.046 160.563 121.162 163.909C120.463 165.435 98.2344 179.612 88.6067 185.458C78.2757 191.735 68.904 175.426 79.1966 169.176C85.4206 165.399 91.6397 161.617 97.8613 157.836C91.8693 153.753 76.477 147.017 75.6613 146.366C66.4235 162.263 57.1665 178.136 47.9263 194.024C41.8459 204.491 25.7264 195.007 31.8331 184.509Z" fill="black"/>
<path d="M117.915 35.4997C118.749 33.2462 121.936 33.2462 122.77 35.4997L123.918 38.6028C127.195 47.4591 134.178 54.4417 143.034 57.7188L146.137 58.8671C148.391 59.701 148.391 62.8883 146.137 63.7222L143.034 64.8705C134.178 68.1476 127.195 75.1302 123.918 83.9865L122.77 87.0896C121.936 89.3431 118.749 89.3431 117.915 87.0896L116.767 83.9865C113.49 75.1302 106.507 68.1476 97.6507 64.8705L94.5476 63.7222C92.294 62.8883 92.294 59.701 94.5476 58.8671L97.6507 57.7188C106.507 54.4417 113.49 47.4591 116.767 38.6028L117.915 35.4997Z" fill="#A3E635"/>
<path d="M98.7192 16.0834C99.1361 14.9566 100.73 14.9566 101.147 16.0834L101.721 17.6349C103.359 22.063 106.851 25.5544 111.279 27.1929L112.83 27.767C113.957 28.184 113.957 29.7777 112.83 30.1946L111.279 30.7687C106.851 32.4073 103.359 35.8986 101.721 40.3267L101.147 41.8783C100.73 43.0051 99.1361 43.0051 98.7192 41.8783L98.1451 40.3267C96.5065 35.8986 93.0152 32.4073 88.5871 30.7687L87.0355 30.1946C85.9087 29.7777 85.9087 28.184 87.0355 27.767L88.5871 27.1929C93.0152 25.5544 96.5065 22.063 98.1451 17.6349L98.7192 16.0834Z" fill="#A3E635"/>
<path d="M139.27 2.69633C139.895 1.00618 142.286 1.00617 142.911 2.69632L143.772 5.02365C146.23 11.6659 151.467 16.9028 158.109 19.3607L160.437 20.2219C162.127 20.8473 162.127 23.2378 160.437 23.8632L158.109 24.7244C151.467 27.1822 146.23 32.4192 143.772 39.0614L142.911 41.3887C142.286 43.0789 139.895 43.0789 139.27 41.3887L138.409 39.0614C135.951 32.4192 130.714 27.1822 124.072 24.7244L121.744 23.8632C120.054 23.2378 120.054 20.8473 121.744 20.2219L124.071 19.3607C130.714 16.9028 135.951 11.6659 138.409 5.02365L139.27 2.69633Z" fill="#A3E635"/>
</svg>
