<svg width="140" height="140" viewBox="0 0 140 140" fill="none" xmlns="http://www.w3.org/2000/svg">
<path d="M46.2486 47.138C47.5372 43.6555 52.4628 43.6555 53.7514 47.138L55.5259 51.9334C60.5901 65.6194 71.3807 76.4099 85.0666 81.4741L89.862 83.2486C93.3445 84.5372 93.3445 89.4628 89.862 90.7514L85.0666 92.5259C71.3807 97.5901 60.5901 108.381 55.5259 122.067L53.7514 126.862C52.4628 130.344 47.5372 130.344 46.2486 126.862L44.4741 122.067C39.4099 108.381 28.6194 97.5901 14.9334 92.5259L10.138 90.7514C6.65554 89.4628 6.65555 84.5372 10.138 83.2486L14.9334 81.4741C28.6194 76.4099 39.4099 65.6194 44.4741 51.9334L46.2486 47.138Z" fill="black"/>
<path d="M113.124 86.069C113.769 84.3278 116.231 84.3278 116.876 86.069L117.763 88.4667C120.295 95.3097 125.69 100.705 132.533 103.237L134.931 104.124C136.672 104.769 136.672 107.231 134.931 107.876L132.533 108.763C125.69 111.295 120.295 116.69 117.763 123.533L116.876 125.931C116.231 127.672 113.769 127.672 113.124 125.931L112.237 123.533C109.705 116.69 104.31 111.295 97.4667 108.763L95.069 107.876C93.3278 107.231 93.3278 104.769 95.069 104.124L97.4667 103.237C104.31 100.705 109.705 95.3097 112.237 88.4667L113.124 86.069Z" fill="black"/>
<path d="M96.6864 10.6035C97.6529 7.99166 101.347 7.99166 102.314 10.6035L103.644 14.2C107.443 24.4645 115.535 32.5574 125.8 36.3556L129.396 37.6864C132.008 38.6529 132.008 42.3471 129.396 43.3136L125.8 44.6444C115.535 48.4426 107.443 56.5355 103.644 66.8L102.314 70.3965C101.347 73.0083 97.6529 73.0083 96.6864 70.3965L95.3556 66.8C91.5574 56.5355 83.4645 48.4426 73.2 44.6444L69.6035 43.3136C66.9917 42.3471 66.9917 38.6529 69.6035 37.6864L73.2 36.3556C83.4645 32.5574 91.5574 24.4645 95.3556 14.2L96.6864 10.6035Z" fill="black"/>
</svg>
