<svg width="140" height="134" viewBox="0 0 140 134" fill="none" xmlns="http://www.w3.org/2000/svg">
<path d="M46.2486 44.138C47.5372 40.6555 52.4628 40.6555 53.7514 44.138L55.5259 48.9334C60.5901 62.6193 71.3807 73.4099 85.0666 78.4741L89.862 80.2486C93.3445 81.5372 93.3445 86.4628 89.862 87.7514L85.0666 89.5259C71.3807 94.5901 60.5901 105.381 55.5259 119.067L53.7514 123.862C52.4628 127.344 47.5372 127.344 46.2486 123.862L44.4741 119.067C39.4099 105.381 28.6193 94.5901 14.9334 89.5259L10.138 87.7514C6.65554 86.4628 6.65555 81.5372 10.138 80.2486L14.9334 78.4741C28.6193 73.4099 39.4099 62.6193 44.4741 48.9334L46.2486 44.138Z" fill="black"/>
<path d="M113.124 83.069C113.769 81.3278 116.231 81.3278 116.876 83.069L117.763 85.4667C120.295 92.3097 125.69 97.7049 132.533 100.237L134.931 101.124C136.672 101.769 136.672 104.231 134.931 104.876L132.533 105.763C125.69 108.295 120.295 113.69 117.763 120.533L116.876 122.931C116.231 124.672 113.769 124.672 113.124 122.931L112.237 120.533C109.705 113.69 104.31 108.295 97.4667 105.763L95.069 104.876C93.3278 104.231 93.3278 101.769 95.069 101.124L97.4667 100.237C104.31 97.7049 109.705 92.3097 112.237 85.4667L113.124 83.069Z" fill="black"/>
<path d="M96.6864 7.60351C97.6529 4.99166 101.347 4.99166 102.314 7.60352L103.644 11.2C107.443 21.4645 115.535 29.5574 125.8 33.3556L129.396 34.6864C132.008 35.6529 132.008 39.3471 129.396 40.3136L125.8 41.6444C115.535 45.4426 107.443 53.5355 103.644 63.8L102.314 67.3965C101.347 70.0083 97.6529 70.0083 96.6864 67.3965L95.3556 63.8C91.5574 53.5355 83.4645 45.4426 73.2 41.6444L69.6035 40.3136C66.9917 39.3471 66.9917 35.6529 69.6035 34.6864L73.2 33.3556C83.4645 29.5574 91.5574 21.4645 95.3556 11.2L96.6864 7.60351Z" fill="black"/>
</svg>
